# xmcd
#
# Track frame offsets:
#	150
#	12700
#	29090
#	38945
#	49807
#	63827
#	84750
#	96135
#	106660
#	117817
#
# Disc length: 1751 seconds
#
# Revision: 0
# Processed by: cddbd v1.5.1PL0 Copyright (c) Steve Scherf et al.
# Submitted via: dBpowerAMP V4.0
#
DISCID=7806d50a
DTITLE=Johnny Winters - Goin' Down Slow
DYEAR=1900
DGENRE=Blues
TTITLE0=1 - Leavin Blues
TTITLE1=2 - Kind Hearted Woman
TTITLE2=3 - Out Of Sight
TTITLE3=4 - Bad News
TTITLE4=5 - Low Down Gal Of Mine
TTITLE5=6 -Goin' Down Slow
TTITLE6=7 - Avocado Green
TTITLE7=8 - That's What Love Does
TTITLE8=9 - Gangster Of Love
TTITLE9=10 - 5 After 4 Am 
EXTD=Lori =)
EXTT0=
EXTT1=
EXTT2=
EXTT3=
EXTT4=
EXTT5=
EXTT6=
EXTT7=
EXTT8=
EXTT9=
PLAYORDER=
